PathFileType	4	(X/Y/Z)	Patient4_TMGait_0pt4_02_left_41.trc.trc
DataRate	CameraRate	NumFrames	NumMarkers	Units	OrigDataRate	OrigDataStartFrame	OrigNumFrames
76.086956521739	76.086956521739	4	33	mm	76.086956521739	124	       141
Frame#	Time	Sacral			L.Shoulder			Chest			R.Shoulder			Neck			R.ASIS			L.ASIS			R.Thigh.Superior			R.Thigh.Lateral			R.Thigh.Inferior			R.Patella			L.Thigh.Superior			L.Thigh.Lateral			L.Thigh.Inferior			L.Patella			L.Shank.Superior			L.Shank.Lateral			L.Shank.Inferior			R.Shank.Superior			R.Shank.Lateral			R.Shank.Inferior			R.Heel			R.Midfoot.Superior			R.Midfoot.Lateral			R.Toe			L.Heel			L.Midfoot.Lateral			L.Midfoot.Superior			L.Toe			L.Elbow			L.Wrist			R.Elbow			R.Wrist			
		X1	Y1	Z1	X2	Y2	Z2	X3	Y3	Z3	X4	Y4	Z4	X5	Y5	Z5	X6	Y6	Z6	X7	Y7	Z7	X8	Y8	Z8	X9	Y9	Z9	X10	Y10	Z10	X11	Y11	Z11	X12	Y12	Z12	X13	Y13	Z13	X14	Y14	Z14	X15	Y15	Z15	X16	Y16	Z16	X17	Y17	Z17	X18	Y18	Z18	X19	Y19	Z19	X20	Y20	Z20	X21	Y21	Z21	X22	Y22	Z22	X23	Y23	Z23	X24	Y24	Z24	X25	Y25	Z25	X26	Y26	Z26	X27	Y27	Z27	X28	Y28	Z28	X29	Y29	Z29	X30	Y30	Z30	X31	Y31	Z31	X32	Y32	Z32	X33	Y33	Z33	

124	56.266571428571	837.691277080860	1000.003237394739	567.793498505721	971.630338772662	1424.702237899588	354.055688958090	1104.822397259131	1361.585620160193	493.552971929024	1055.722995002253	1435.869081233416	679.791807306424	983.908058169225	1489.478941185827	509.927997795419	1080.599746132060	935.903588842918	649.341622796336	1026.674870660684	955.326295735725	378.547218089626	1080.597738964233	723.807847811002	619.513377943727	985.643568808213	625.667755463037	689.506897587457	1040.377581311756	563.455363733658	603.470982213050	1023.012291148947	477.440591068692	609.223990807361	1105.141977817520	764.784227554829	403.896555519688	1043.444293383603	637.612580323107	333.111550368779	1148.446316045691	576.641115055990	388.176554433430	1169.432513625710	508.645123894499	385.960806674050	1147.227087414653	435.860651837699	375.191057657572	1067.492574266611	314.157915438698	323.496495924188	1144.426106792153	205.542442573324	375.091807173281	984.363244283462	392.759948495012	618.628480539169	904.605953990962	298.503926550427	686.762636982382	927.000092259555	200.223214954331	618.639013389885	775.455414227529	43.365508601827	594.457910637099	947.717963253246	95.997009083007	625.636942990701	860.196586700681	36.072068412215	666.568712923001	1068.317535443685	42.521435880042	650.631644609114	1042.026110444727	40.859237676687	412.959134845305	1114.041178215957	38.408069029007	331.167230705456	1195.554867741018	103.086409061779	353.956315144026	1323.592891606083	56.362345109600	323.206705653263	848.901333804315	1086.433821948886	278.557339889761	858.388159769322	824.326717339438	276.085601076279	1196.843925882197	1118.429209373132	779.828180238789	1415.665708374652	1181.186352007755	675.534306231203	
125	56.279714285714	838.291332144866	999.131996247037	565.276254839922	970.828122943885	1423.838856698578	351.390805416309	1104.121202119789	1361.570189597723	491.177234348368	1054.265941990926	1435.625555057330	677.396438412717	982.760924503351	1488.901858075026	507.239812056192	1081.389939366749	935.382450867929	647.266502854513	1027.641356545023	954.825250840258	376.700790523014	1080.886386208972	722.951784751017	617.783890591009	985.081918771704	625.219469217771	687.700891032241	1039.521342845696	562.488572520578	601.941581723659	1021.506204394194	476.289039410693	607.674093811390	1105.553924831576	762.803265050316	401.865201307060	1042.068000484607	636.057584165195	332.362546314375	1147.008193116596	574.846102938776	387.478502573183	1166.783433096566	506.171682213865	385.838311387574	1144.217670012948	433.291029534815	375.054059912809	1063.323153646661	312.209124056437	323.732017885611	1138.788273444401	202.976942154099	375.895902671966	982.012637680471	392.027970552940	617.401411338129	901.455655887405	298.719896123610	685.933958640393	922.844640728063	199.968765340253	618.153996500409	770.224908765603	43.700048491915	594.549399212258	942.581651076330	96.000902657296	625.621184516522	854.989160496473	36.156962268159	666.566244480958	1063.113656020662	42.278504212919	650.675757560972	1034.204807488256	39.799915269033	413.714185867965	1106.231765279206	37.228016856946	331.825262454300	1188.465038238219	100.606780425015	355.337726025807	1316.275946976984	52.558902277383	324.266189670086	850.369205955872	1084.703498306513	275.585070524131	862.121832475866	822.619085366438	272.660111883082	1194.691376668205	1117.555701283536	778.143054454509	1415.470987966191	1176.456896596250	674.784240615249	
126	56.292857142857	838.820664909134	998.463062295226	562.732445362977	970.151326227505	1423.130463212654	348.674311123098	1103.535785522940	1361.634173702723	488.721908770844	1053.020786614839	1435.514461245044	674.925155027428	981.768259905134	1488.471079231913	504.497014614115	1082.130941065958	934.949184558504	644.950123018617	1028.394194712617	954.581517492613	374.638980703728	1081.270384187085	722.222083128543	615.790237181442	984.806637996588	624.825439345124	685.704189641439	1038.989105196120	561.602169242535	600.199063754642	1020.421413587362	475.110558305245	605.997434667709	1105.934187675880	761.345403395104	399.803466544444	1041.141869637477	635.042314010672	331.370544088270	1145.914422908586	573.614693971824	386.727553586079	1164.546730917053	504.279659371480	385.565113039947	1141.705838828983	431.261527006038	374.733670552163	1059.877875887139	310.748979042642	323.632997469288	1133.800250510266	200.975874908096	376.496951377897	979.960554027550	391.322477416671	616.064551416323	898.524033160803	299.061725906656	685.019817156725	918.836438117614	199.803554327788	617.649848761870	765.019551808944	44.233459171196	594.675382537836	937.530141242535	96.044522676042	625.631515722351	849.826714869567	36.316257415329	666.576816201458	1057.953908336630	41.966361063593	650.727508523295	1027.200844458547	38.988020097335	414.194964329423	1099.277830207273	36.468859261041	332.254699811167	1181.988469097266	98.864129793686	356.458021761935	1309.694140013125	49.885676856440	325.130365040500	852.381286911295	1082.977232436298	272.332197283891	866.607592209036	820.949632690630	268.786590539972	1191.999520699642	1116.482361451051	776.639533772603	1415.181146795180	1170.406646623294	674.583827851354	
127	56.306000000000	839.253193261646	998.021947480951	560.162086619068	969.583442109666	1422.626455413935	345.947774873762	1103.059685952793	1361.779262322516	486.200110551434	1052.031606637713	1435.542760235219	672.393418534024	980.936138065634	1488.209801917980	501.743689140976	1082.770977029735	934.636877977017	642.389774913966	1028.902187405350	954.602412359303	372.320278668746	1081.667423591465	721.661103169890	613.547428663038	984.761730791199	624.521087176001	683.543779481177	1038.763160690165	560.836598300180	598.290665348605	1019.772349371837	473.927669189941	604.273770897810	1106.307561912362	760.505090084132	397.709555403402	1040.708825667128	634.568463584928	330.124317208057	1145.186676830004	572.926149210768	385.846819728214	1162.750151434104	502.958163460290	385.095172636829	1139.699418407713	429.765854761849	374.227908406665	1057.141547488329	309.785721573019	323.189356047996	1129.430115765424	199.534612264975	376.886792165527	978.208646657940	390.667918244250	614.668012776761	895.796248081590	299.555613778368	684.043690517405	914.985537975709	199.758399826293	617.154910556223	759.846504537395	45.021816545526	594.837937928154	932.582799926219	96.140178428073	625.681672114593	844.713924593136	36.578252412552	666.605417386655	1052.842540134519	41.588784971655	650.788700678317	1020.972264894598	38.438092666352	414.436636637930	1093.119481592672	36.075177367671	332.481941534315	1176.107394375893	97.787319012210	357.287933624324	1303.797100367442	48.203440320655	325.761325526773	854.910538873349	1081.332250167676	268.801982976464	871.882537852204	819.407517637830	264.499582511590	1188.824039825427	1115.242473548686	775.258829162253	1414.781938694155	1163.018789020702	674.940989967188	
